<svg id="visual" viewBox="0 0 540 960" width="540" height="960" xmlns="http://www.w3.org/2000/svg" xmlns:xlink="http://www.w3.org/1999/xlink" version="1.1"><g stroke-width="1" stroke-linejoin="bevel"><path d="M235.4 489.9L203.4 470.1L182.3 561.8Z" fill="#15384f" stroke="#15384f"></path><path d="M182.3 561.8L212.4 570.8L235.4 489.9Z" fill="#277297" stroke="#277297"></path><path d="M203.4 470.1L130.3 502.9L182.3 561.8Z" fill="#297ea6" stroke="#297ea6"></path><path d="M212.4 570.8L288.6 512.9L235.4 489.9Z" fill="#00101c" stroke="#00101c"></path><path d="M222.4 354.2L146.3 421.1L203.4 470.1Z" fill="#19435d" stroke="#19435d"></path><path d="M212.4 570.8L292.6 560.8L288.6 512.9Z" fill="#15384f" stroke="#15384f"></path><path d="M144.3 366.2L146.3 421.1L222.4 354.2Z" fill="#081a28" stroke="#081a28"></path><path d="M203.4 470.1L146.3 421.1L130.3 502.9Z" fill="#205a7a" stroke="#205a7a"></path><path d="M61.1 414.1L70.1 513.9L130.3 502.9Z" fill="#15384f" stroke="#15384f"></path><path d="M130.3 502.9L79.1 569.8L182.3 561.8Z" fill="#19435d" stroke="#19435d"></path><path d="M70.1 513.9L79.1 569.8L130.3 502.9Z" fill="#277297" stroke="#277297"></path><path d="M183.3 671.6L258.4 656.6L212.4 570.8Z" fill="#00101c" stroke="#00101c"></path><path d="M183.3 671.6L212.4 570.8L182.3 561.8Z" fill="#00101c" stroke="#00101c"></path><path d="M212.4 570.8L258.4 656.6L292.6 560.8Z" fill="#112e42" stroke="#112e42"></path><path d="M83.1 661.6L183.3 671.6L182.3 561.8Z" fill="#297ea6" stroke="#297ea6"></path><path d="M306.6 398.2L203.4 470.1L235.4 489.9Z" fill="#112e42" stroke="#112e42"></path><path d="M146.3 421.1L61.1 414.1L130.3 502.9Z" fill="#00101c" stroke="#00101c"></path><path d="M336.6 429.1L235.4 489.9L288.6 512.9Z" fill="#297ea6" stroke="#297ea6"></path><path d="M336.6 429.1L306.6 398.2L235.4 489.9Z" fill="#205a7a" stroke="#205a7a"></path><path d="M306.6 398.2L222.4 354.2L203.4 470.1Z" fill="#0c2435" stroke="#0c2435"></path><path d="M397.7 487.9L336.6 429.1L288.6 512.9Z" fill="#297ea6" stroke="#297ea6"></path><path d="M98.1 365.2L61.1 414.1L146.3 421.1Z" fill="#15384f" stroke="#15384f"></path><path d="M239.4 716.5L278.6 672.6L258.4 656.6Z" fill="#277297" stroke="#277297"></path><path d="M258.4 656.6L278.6 672.6L292.6 560.8Z" fill="#277297" stroke="#277297"></path><path d="M292.6 560.8L363.7 593.8L288.6 512.9Z" fill="#205a7a" stroke="#205a7a"></path><path d="M144.3 366.2L98.1 365.2L146.3 421.1Z" fill="#081a28" stroke="#081a28"></path><path d="M102.1 324.4L98.1 365.2L144.3 366.2Z" fill="#297ea6" stroke="#297ea6"></path><path d="M278.6 672.6L363.7 593.8L292.6 560.8Z" fill="#19435d" stroke="#19435d"></path><path d="M0 615.8L83.1 661.6L79.1 569.8Z" fill="#081a28" stroke="#081a28"></path><path d="M79.1 569.8L83.1 661.6L182.3 561.8Z" fill="#205a7a" stroke="#205a7a"></path><path d="M0 525.9L79.1 569.8L70.1 513.9Z" fill="#205a7a" stroke="#205a7a"></path><path d="M0 456.1L0 525.9L70.1 513.9Z" fill="#112e42" stroke="#112e42"></path><path d="M363.7 593.8L397.7 487.9L288.6 512.9Z" fill="#081a28" stroke="#081a28"></path><path d="M336.6 429.1L393.7 383.2L306.6 398.2Z" fill="#246688" stroke="#246688"></path><path d="M183.3 671.6L239.4 716.5L258.4 656.6Z" fill="#00101c" stroke="#00101c"></path><path d="M278.6 672.6L371.7 675.6L363.7 593.8Z" fill="#246688" stroke="#246688"></path><path d="M147.3 745.5L239.4 716.5L183.3 671.6Z" fill="#0c2435" stroke="#0c2435"></path><path d="M0 384.2L0 456.1L61.1 414.1Z" fill="#112e42" stroke="#112e42"></path><path d="M61.1 414.1L0 456.1L70.1 513.9Z" fill="#112e42" stroke="#112e42"></path><path d="M397.7 487.9L389.7 424.1L336.6 429.1Z" fill="#205a7a" stroke="#205a7a"></path><path d="M322.6 290.4L224.4 294.4L222.4 354.2Z" fill="#0c2435" stroke="#0c2435"></path><path d="M127.3 266.4L102.1 324.4L144.3 366.2Z" fill="#277297" stroke="#277297"></path><path d="M98.1 365.2L0 384.2L61.1 414.1Z" fill="#297ea6" stroke="#297ea6"></path><path d="M0 525.9L0 615.8L79.1 569.8Z" fill="#246688" stroke="#246688"></path><path d="M322.6 290.4L222.4 354.2L306.6 398.2Z" fill="#297ea6" stroke="#297ea6"></path><path d="M222.4 354.2L224.4 294.4L144.3 366.2Z" fill="#297ea6" stroke="#297ea6"></path><path d="M239.4 716.5L308.6 717.5L278.6 672.6Z" fill="#0c2435" stroke="#0c2435"></path><path d="M65.1 711.5L147.3 745.5L83.1 661.6Z" fill="#0c2435" stroke="#0c2435"></path><path d="M83.1 661.6L147.3 745.5L183.3 671.6Z" fill="#205a7a" stroke="#205a7a"></path><path d="M239.4 716.5L219.4 825.3L308.6 717.5Z" fill="#277297" stroke="#277297"></path><path d="M0 661.6L65.1 711.5L83.1 661.6Z" fill="#205a7a" stroke="#205a7a"></path><path d="M308.6 717.5L371.7 675.6L278.6 672.6Z" fill="#0c2435" stroke="#0c2435"></path><path d="M486.9 523.9L462.9 428.1L397.7 487.9Z" fill="#205a7a" stroke="#205a7a"></path><path d="M102.1 324.4L0 384.2L98.1 365.2Z" fill="#1d4e6b" stroke="#1d4e6b"></path><path d="M462.9 428.1L393.7 383.2L389.7 424.1Z" fill="#0c2435" stroke="#0c2435"></path><path d="M389.7 424.1L393.7 383.2L336.6 429.1Z" fill="#0c2435" stroke="#0c2435"></path><path d="M0 615.8L0 661.6L83.1 661.6Z" fill="#277297" stroke="#277297"></path><path d="M385.7 308.4L322.6 290.4L306.6 398.2Z" fill="#19435d" stroke="#19435d"></path><path d="M202.4 232.5L127.3 266.4L224.4 294.4Z" fill="#205a7a" stroke="#205a7a"></path><path d="M224.4 294.4L127.3 266.4L144.3 366.2Z" fill="#00101c" stroke="#00101c"></path><path d="M102.1 324.4L0 290.4L0 384.2Z" fill="#1d4e6b" stroke="#1d4e6b"></path><path d="M93.1 783.3L153.3 781.3L147.3 745.5Z" fill="#15384f" stroke="#15384f"></path><path d="M147.3 745.5L153.3 781.3L239.4 716.5Z" fill="#19435d" stroke="#19435d"></path><path d="M93.1 783.3L147.3 745.5L65.1 711.5Z" fill="#277297" stroke="#277297"></path><path d="M397.7 487.9L462.9 428.1L389.7 424.1Z" fill="#246688" stroke="#246688"></path><path d="M393.7 383.2L385.7 308.4L306.6 398.2Z" fill="#00101c" stroke="#00101c"></path><path d="M473.9 600.8L397.7 487.9L363.7 593.8Z" fill="#112e42" stroke="#112e42"></path><path d="M489.9 353.2L385.7 308.4L393.7 383.2Z" fill="#277297" stroke="#277297"></path><path d="M292.6 219.5L202.4 232.5L224.4 294.4Z" fill="#297ea6" stroke="#297ea6"></path><path d="M292.6 219.5L224.4 294.4L322.6 290.4Z" fill="#081a28" stroke="#081a28"></path><path d="M0 750.5L93.1 783.3L65.1 711.5Z" fill="#277297" stroke="#277297"></path><path d="M444.9 680.6L473.9 600.8L363.7 593.8Z" fill="#1d4e6b" stroke="#1d4e6b"></path><path d="M473.9 600.8L486.9 523.9L397.7 487.9Z" fill="#0c2435" stroke="#0c2435"></path><path d="M371.7 675.6L444.9 680.6L363.7 593.8Z" fill="#277297" stroke="#277297"></path><path d="M410.7 735.5L444.9 680.6L371.7 675.6Z" fill="#205a7a" stroke="#205a7a"></path><path d="M410.7 735.5L371.7 675.6L308.6 717.5Z" fill="#112e42" stroke="#112e42"></path><path d="M56.1 223.5L102.1 324.4L127.3 266.4Z" fill="#246688" stroke="#246688"></path><path d="M56.1 223.5L0 290.4L102.1 324.4Z" fill="#15384f" stroke="#15384f"></path><path d="M0 661.6L0 750.5L65.1 711.5Z" fill="#0c2435" stroke="#0c2435"></path><path d="M327.6 825.3L410.7 735.5L308.6 717.5Z" fill="#112e42" stroke="#112e42"></path><path d="M214.4 866.2L219.4 825.3L169.3 895.2Z" fill="#19435d" stroke="#19435d"></path><path d="M153.3 781.3L219.4 825.3L239.4 716.5Z" fill="#1d4e6b" stroke="#1d4e6b"></path><path d="M407.7 242.5L292.6 219.5L322.6 290.4Z" fill="#081a28" stroke="#081a28"></path><path d="M153.3 123.7L125.3 202.5L202.4 232.5Z" fill="#1d4e6b" stroke="#1d4e6b"></path><path d="M202.4 232.5L125.3 202.5L127.3 266.4Z" fill="#112e42" stroke="#112e42"></path><path d="M125.3 202.5L56.1 223.5L127.3 266.4Z" fill="#081a28" stroke="#081a28"></path><path d="M219.4 825.3L327.6 825.3L308.6 717.5Z" fill="#19435d" stroke="#19435d"></path><path d="M462.9 428.1L489.9 353.2L393.7 383.2Z" fill="#112e42" stroke="#112e42"></path><path d="M385.7 308.4L407.7 242.5L322.6 290.4Z" fill="#277297" stroke="#277297"></path><path d="M540 459.1L489.9 353.2L462.9 428.1Z" fill="#1d4e6b" stroke="#1d4e6b"></path><path d="M540 577.8L540 510.9L486.9 523.9Z" fill="#00101c" stroke="#00101c"></path><path d="M486.9 523.9L540 459.1L462.9 428.1Z" fill="#081a28" stroke="#081a28"></path><path d="M540 577.8L486.9 523.9L473.9 600.8Z" fill="#19435d" stroke="#19435d"></path><path d="M486.9 269.4L407.7 242.5L385.7 308.4Z" fill="#297ea6" stroke="#297ea6"></path><path d="M540 510.9L540 459.1L486.9 523.9Z" fill="#0c2435" stroke="#0c2435"></path><path d="M540 663.6L540 577.8L473.9 600.8Z" fill="#00101c" stroke="#00101c"></path><path d="M540 663.6L473.9 600.8L444.9 680.6Z" fill="#297ea6" stroke="#297ea6"></path><path d="M169.3 895.2L219.4 825.3L153.3 781.3Z" fill="#277297" stroke="#277297"></path><path d="M219.4 825.3L309.6 871.2L327.6 825.3Z" fill="#19435d" stroke="#19435d"></path><path d="M169.3 895.2L153.3 781.3L93.1 783.3Z" fill="#112e42" stroke="#112e42"></path><path d="M453.9 792.3L479.9 739.5L410.7 735.5Z" fill="#297ea6" stroke="#297ea6"></path><path d="M410.7 735.5L479.9 739.5L444.9 680.6Z" fill="#00101c" stroke="#00101c"></path><path d="M0 750.5L0 821.3L93.1 783.3Z" fill="#0c2435" stroke="#0c2435"></path><path d="M363.7 129.7L278.6 163.7L292.6 219.5Z" fill="#19435d" stroke="#19435d"></path><path d="M292.6 219.5L278.6 163.7L202.4 232.5Z" fill="#297ea6" stroke="#297ea6"></path><path d="M379.7 862.2L395.7 825.3L327.6 825.3Z" fill="#081a28" stroke="#081a28"></path><path d="M327.6 825.3L395.7 825.3L410.7 735.5Z" fill="#277297" stroke="#277297"></path><path d="M214.4 866.2L309.6 871.2L219.4 825.3Z" fill="#0c2435" stroke="#0c2435"></path><path d="M0 134.7L0 200.5L56.1 223.5Z" fill="#15384f" stroke="#15384f"></path><path d="M56.1 223.5L0 200.5L0 290.4Z" fill="#1d4e6b" stroke="#1d4e6b"></path><path d="M96.1 126.7L56.1 223.5L125.3 202.5Z" fill="#00101c" stroke="#00101c"></path><path d="M540 710.5L540 663.6L444.9 680.6Z" fill="#1d4e6b" stroke="#1d4e6b"></path><path d="M395.7 825.3L453.9 792.3L410.7 735.5Z" fill="#297ea6" stroke="#297ea6"></path><path d="M479.9 739.5L540 710.5L444.9 680.6Z" fill="#15384f" stroke="#15384f"></path><path d="M57.1 891.2L169.3 895.2L93.1 783.3Z" fill="#1d4e6b" stroke="#1d4e6b"></path><path d="M214.4 866.2L243.4 960L309.6 871.2Z" fill="#277297" stroke="#277297"></path><path d="M540 317.4L486.9 269.4L489.9 353.2Z" fill="#00101c" stroke="#00101c"></path><path d="M489.9 353.2L486.9 269.4L385.7 308.4Z" fill="#19435d" stroke="#19435d"></path><path d="M363.7 129.7L255.4 120.7L278.6 163.7Z" fill="#246688" stroke="#246688"></path><path d="M540 459.1L540 349.2L489.9 353.2Z" fill="#277297" stroke="#277297"></path><path d="M309.6 871.2L379.7 862.2L327.6 825.3Z" fill="#112e42" stroke="#112e42"></path><path d="M486.9 901.2L540 842.3L453.9 792.3Z" fill="#297ea6" stroke="#297ea6"></path><path d="M319.6 960L379.7 862.2L309.6 871.2Z" fill="#205a7a" stroke="#205a7a"></path><path d="M0 821.3L57.1 891.2L93.1 783.3Z" fill="#246688" stroke="#246688"></path><path d="M540 842.3L540 710.5L479.9 739.5Z" fill="#246688" stroke="#246688"></path><path d="M255.4 120.7L153.3 123.7L202.4 232.5Z" fill="#0c2435" stroke="#0c2435"></path><path d="M540 349.2L540 317.4L489.9 353.2Z" fill="#19435d" stroke="#19435d"></path><path d="M0 856.2L57.1 891.2L0 821.3Z" fill="#246688" stroke="#246688"></path><path d="M363.7 129.7L292.6 219.5L407.7 242.5Z" fill="#00101c" stroke="#00101c"></path><path d="M278.6 163.7L255.4 120.7L202.4 232.5Z" fill="#15384f" stroke="#15384f"></path><path d="M153.3 123.7L96.1 126.7L125.3 202.5Z" fill="#297ea6" stroke="#297ea6"></path><path d="M474.9 197.5L363.7 129.7L407.7 242.5Z" fill="#246688" stroke="#246688"></path><path d="M474.9 197.5L407.7 242.5L486.9 269.4Z" fill="#112e42" stroke="#112e42"></path><path d="M540 216.5L474.9 197.5L486.9 269.4Z" fill="#112e42" stroke="#112e42"></path><path d="M255.4 120.7L201.4 92.8L153.3 123.7Z" fill="#081a28" stroke="#081a28"></path><path d="M127.3 54.8L52.1 100.8L96.1 126.7Z" fill="#246688" stroke="#246688"></path><path d="M259.4 0L201.4 92.8L255.4 120.7Z" fill="#1d4e6b" stroke="#1d4e6b"></path><path d="M96.1 126.7L0 134.7L56.1 223.5Z" fill="#0c2435" stroke="#0c2435"></path><path d="M52.1 100.8L0 134.7L96.1 126.7Z" fill="#19435d" stroke="#19435d"></path><path d="M127.3 54.8L96.1 126.7L153.3 123.7Z" fill="#19435d" stroke="#19435d"></path><path d="M169.3 895.2L243.4 960L214.4 866.2Z" fill="#19435d" stroke="#19435d"></path><path d="M132.3 960L243.4 960L169.3 895.2Z" fill="#297ea6" stroke="#297ea6"></path><path d="M75.1 960L132.3 960L57.1 891.2Z" fill="#00101c" stroke="#00101c"></path><path d="M57.1 891.2L132.3 960L169.3 895.2Z" fill="#246688" stroke="#246688"></path><path d="M540 317.4L540 216.5L486.9 269.4Z" fill="#0c2435" stroke="#0c2435"></path><path d="M474.9 197.5L412.7 92.8L363.7 129.7Z" fill="#00101c" stroke="#00101c"></path><path d="M0 960L75.1 960L57.1 891.2Z" fill="#00101c" stroke="#00101c"></path><path d="M243.4 960L319.6 960L309.6 871.2Z" fill="#081a28" stroke="#081a28"></path><path d="M486.9 901.2L453.9 792.3L395.7 825.3Z" fill="#1d4e6b" stroke="#1d4e6b"></path><path d="M453.9 792.3L540 842.3L479.9 739.5Z" fill="#1d4e6b" stroke="#1d4e6b"></path><path d="M52.1 100.8L0 99.8L0 134.7Z" fill="#277297" stroke="#277297"></path><path d="M48.1 0L0 99.8L52.1 100.8Z" fill="#246688" stroke="#246688"></path><path d="M540 159.7L488.9 154.7L474.9 197.5Z" fill="#297ea6" stroke="#297ea6"></path><path d="M150.3 0L127.3 54.8L201.4 92.8Z" fill="#00101c" stroke="#00101c"></path><path d="M334.6 60.8L255.4 120.7L363.7 129.7Z" fill="#1d4e6b" stroke="#1d4e6b"></path><path d="M201.4 92.8L127.3 54.8L153.3 123.7Z" fill="#246688" stroke="#246688"></path><path d="M486.9 901.2L395.7 825.3L379.7 862.2Z" fill="#19435d" stroke="#19435d"></path><path d="M488.9 154.7L412.7 92.8L474.9 197.5Z" fill="#081a28" stroke="#081a28"></path><path d="M412.7 92.8L334.6 60.8L363.7 129.7Z" fill="#112e42" stroke="#112e42"></path><path d="M445.9 960L486.9 901.2L379.7 862.2Z" fill="#081a28" stroke="#081a28"></path><path d="M319.6 960L385.7 960L379.7 862.2Z" fill="#00101c" stroke="#00101c"></path><path d="M0 856.2L0 960L57.1 891.2Z" fill="#19435d" stroke="#19435d"></path><path d="M540 216.5L540 159.7L474.9 197.5Z" fill="#112e42" stroke="#112e42"></path><path d="M488.9 154.7L439.9 55.8L412.7 92.8Z" fill="#112e42" stroke="#112e42"></path><path d="M385.7 960L445.9 960L379.7 862.2Z" fill="#297ea6" stroke="#297ea6"></path><path d="M486.9 901.2L540 908.2L540 842.3Z" fill="#19435d" stroke="#19435d"></path><path d="M259.4 0L150.3 0L201.4 92.8Z" fill="#0c2435" stroke="#0c2435"></path><path d="M127.3 54.8L48.1 0L52.1 100.8Z" fill="#1d4e6b" stroke="#1d4e6b"></path><path d="M295.6 0L259.4 0L334.6 60.8Z" fill="#00101c" stroke="#00101c"></path><path d="M334.6 60.8L259.4 0L255.4 120.7Z" fill="#246688" stroke="#246688"></path><path d="M397.7 0L334.6 60.8L412.7 92.8Z" fill="#205a7a" stroke="#205a7a"></path><path d="M540 960L540 908.2L486.9 901.2Z" fill="#277297" stroke="#277297"></path><path d="M540 66.8L439.9 55.8L488.9 154.7Z" fill="#081a28" stroke="#081a28"></path><path d="M397.7 0L295.6 0L334.6 60.8Z" fill="#297ea6" stroke="#297ea6"></path><path d="M150.3 0L48.1 0L127.3 54.8Z" fill="#15384f" stroke="#15384f"></path><path d="M48.1 0L0 0L0 99.8Z" fill="#00101c" stroke="#00101c"></path><path d="M470.9 0L397.7 0L439.9 55.8Z" fill="#246688" stroke="#246688"></path><path d="M439.9 55.8L397.7 0L412.7 92.8Z" fill="#1d4e6b" stroke="#1d4e6b"></path><path d="M445.9 960L540 960L486.9 901.2Z" fill="#19435d" stroke="#19435d"></path><path d="M540 159.7L540 66.8L488.9 154.7Z" fill="#15384f" stroke="#15384f"></path><path d="M540 66.8L470.9 0L439.9 55.8Z" fill="#081a28" stroke="#081a28"></path><path d="M540 66.8L540 0L470.9 0Z" fill="#15384f" stroke="#15384f"></path></g></svg>