<svg id="visual" viewBox="0 0 960 540" width="960" height="540" xmlns="http://www.w3.org/2000/svg" xmlns:xlink="http://www.w3.org/1999/xlink" version="1.1"><g stroke-width="1" stroke-linejoin="bevel"><path d="M462 251L533 309L531 265Z" fill="#205a7a" stroke="#205a7a"></path><path d="M462 251L487 344L533 309Z" fill="#081a28" stroke="#081a28"></path><path d="M462 251L430 330L487 344Z" fill="#1d4e6b" stroke="#1d4e6b"></path><path d="M533 309L565 257L531 265Z" fill="#1d4e6b" stroke="#1d4e6b"></path><path d="M531 265L505 177L462 251Z" fill="#205a7a" stroke="#205a7a"></path><path d="M430 330L456 383L487 344Z" fill="#1d4e6b" stroke="#1d4e6b"></path><path d="M487 344L540 394L533 309Z" fill="#00101c" stroke="#00101c"></path><path d="M591 379L600 279L533 309Z" fill="#277297" stroke="#277297"></path><path d="M533 309L600 279L565 257Z" fill="#205a7a" stroke="#205a7a"></path><path d="M546 176L531 265L565 257Z" fill="#00101c" stroke="#00101c"></path><path d="M546 176L505 177L531 265Z" fill="#297ea6" stroke="#297ea6"></path><path d="M456 383L540 394L487 344Z" fill="#0c2435" stroke="#0c2435"></path><path d="M361 292L393 366L430 330Z" fill="#277297" stroke="#277297"></path><path d="M430 330L393 366L456 383Z" fill="#0c2435" stroke="#0c2435"></path><path d="M361 292L430 330L462 251Z" fill="#112e42" stroke="#112e42"></path><path d="M505 177L478 165L462 251Z" fill="#246688" stroke="#246688"></path><path d="M656 183L546 176L565 257Z" fill="#277297" stroke="#277297"></path><path d="M505 177L488 146L478 165Z" fill="#15384f" stroke="#15384f"></path><path d="M375 228L361 292L462 251Z" fill="#297ea6" stroke="#297ea6"></path><path d="M496 462L552 403L540 394Z" fill="#205a7a" stroke="#205a7a"></path><path d="M540 394L591 379L533 309Z" fill="#205a7a" stroke="#205a7a"></path><path d="M410 165L375 228L462 251Z" fill="#205a7a" stroke="#205a7a"></path><path d="M393 366L427 407L456 383Z" fill="#19435d" stroke="#19435d"></path><path d="M456 383L496 462L540 394Z" fill="#246688" stroke="#246688"></path><path d="M552 403L591 379L540 394Z" fill="#297ea6" stroke="#297ea6"></path><path d="M546 176L488 146L505 177Z" fill="#15384f" stroke="#15384f"></path><path d="M478 165L410 165L462 251Z" fill="#19435d" stroke="#19435d"></path><path d="M450 124L410 165L478 165Z" fill="#246688" stroke="#246688"></path><path d="M450 124L399 148L410 165Z" fill="#00101c" stroke="#00101c"></path><path d="M410 165L399 148L375 228Z" fill="#19435d" stroke="#19435d"></path><path d="M319 382L393 427L393 366Z" fill="#246688" stroke="#246688"></path><path d="M393 366L393 427L427 407Z" fill="#112e42" stroke="#112e42"></path><path d="M427 407L496 462L456 383Z" fill="#0c2435" stroke="#0c2435"></path><path d="M667 288L654 245L600 279Z" fill="#277297" stroke="#277297"></path><path d="M600 279L654 245L565 257Z" fill="#277297" stroke="#277297"></path><path d="M437 83L450 124L482 56Z" fill="#205a7a" stroke="#205a7a"></path><path d="M488 146L450 124L478 165Z" fill="#15384f" stroke="#15384f"></path><path d="M611 445L636 380L591 379Z" fill="#081a28" stroke="#081a28"></path><path d="M591 379L636 380L600 279Z" fill="#297ea6" stroke="#297ea6"></path><path d="M440 502L496 462L427 407Z" fill="#081a28" stroke="#081a28"></path><path d="M552 403L611 445L591 379Z" fill="#15384f" stroke="#15384f"></path><path d="M636 380L667 288L600 279Z" fill="#277297" stroke="#277297"></path><path d="M301 251L316 325L361 292Z" fill="#0c2435" stroke="#0c2435"></path><path d="M361 292L316 325L393 366Z" fill="#112e42" stroke="#112e42"></path><path d="M301 251L361 292L375 228Z" fill="#297ea6" stroke="#297ea6"></path><path d="M301 182L301 251L375 228Z" fill="#0c2435" stroke="#0c2435"></path><path d="M316 325L319 382L393 366Z" fill="#297ea6" stroke="#297ea6"></path><path d="M271 376L319 382L316 325Z" fill="#19435d" stroke="#19435d"></path><path d="M656 183L599 126L546 176Z" fill="#00101c" stroke="#00101c"></path><path d="M546 176L599 126L488 146Z" fill="#00101c" stroke="#00101c"></path><path d="M636 380L684 322L667 288Z" fill="#19435d" stroke="#19435d"></path><path d="M687 192L656 183L654 245Z" fill="#246688" stroke="#246688"></path><path d="M687 192L654 245L721 251Z" fill="#297ea6" stroke="#297ea6"></path><path d="M654 245L656 183L565 257Z" fill="#297ea6" stroke="#297ea6"></path><path d="M558 510L611 445L552 403Z" fill="#277297" stroke="#277297"></path><path d="M636 380L692 367L684 322Z" fill="#277297" stroke="#277297"></path><path d="M482 56L450 124L488 146Z" fill="#15384f" stroke="#15384f"></path><path d="M450 124L437 83L399 148Z" fill="#081a28" stroke="#081a28"></path><path d="M399 148L301 182L375 228Z" fill="#0c2435" stroke="#0c2435"></path><path d="M299 476L390 478L393 427Z" fill="#15384f" stroke="#15384f"></path><path d="M393 427L440 502L427 407Z" fill="#19435d" stroke="#19435d"></path><path d="M496 462L558 510L552 403Z" fill="#19435d" stroke="#19435d"></path><path d="M688 414L692 367L636 380Z" fill="#205a7a" stroke="#205a7a"></path><path d="M334 106L301 182L399 148Z" fill="#1d4e6b" stroke="#1d4e6b"></path><path d="M390 478L440 502L393 427Z" fill="#15384f" stroke="#15384f"></path><path d="M721 251L654 245L667 288Z" fill="#277297" stroke="#277297"></path><path d="M656 183L643 106L599 126Z" fill="#081a28" stroke="#081a28"></path><path d="M721 251L667 288L684 322Z" fill="#19435d" stroke="#19435d"></path><path d="M229 255L268 327L301 251Z" fill="#277297" stroke="#277297"></path><path d="M301 251L268 327L316 325Z" fill="#246688" stroke="#246688"></path><path d="M319 382L290 448L393 427Z" fill="#081a28" stroke="#081a28"></path><path d="M531 540L558 510L496 462Z" fill="#205a7a" stroke="#205a7a"></path><path d="M611 445L688 414L636 380Z" fill="#112e42" stroke="#112e42"></path><path d="M599 126L482 56L488 146Z" fill="#1d4e6b" stroke="#1d4e6b"></path><path d="M756 270L721 251L684 322Z" fill="#15384f" stroke="#15384f"></path><path d="M680 476L688 414L611 445Z" fill="#1d4e6b" stroke="#1d4e6b"></path><path d="M769 330L756 270L684 322Z" fill="#0c2435" stroke="#0c2435"></path><path d="M268 327L271 376L316 325Z" fill="#081a28" stroke="#081a28"></path><path d="M687 192L643 106L656 183Z" fill="#205a7a" stroke="#205a7a"></path><path d="M599 126L606 54L482 56Z" fill="#277297" stroke="#277297"></path><path d="M742 136L643 106L687 192Z" fill="#205a7a" stroke="#205a7a"></path><path d="M437 83L334 106L399 148Z" fill="#15384f" stroke="#15384f"></path><path d="M398 40L334 106L437 83Z" fill="#0c2435" stroke="#0c2435"></path><path d="M722 44L633 87L643 106Z" fill="#0c2435" stroke="#0c2435"></path><path d="M643 106L633 87L599 126Z" fill="#246688" stroke="#246688"></path><path d="M271 376L276 425L319 382Z" fill="#205a7a" stroke="#205a7a"></path><path d="M390 478L419 540L440 502Z" fill="#1d4e6b" stroke="#1d4e6b"></path><path d="M440 502L531 540L496 462Z" fill="#15384f" stroke="#15384f"></path><path d="M602 540L661 487L611 445Z" fill="#1d4e6b" stroke="#1d4e6b"></path><path d="M276 425L290 448L319 382Z" fill="#081a28" stroke="#081a28"></path><path d="M440 502L419 540L531 540Z" fill="#205a7a" stroke="#205a7a"></path><path d="M357 540L419 540L390 478Z" fill="#112e42" stroke="#112e42"></path><path d="M602 540L611 445L558 510Z" fill="#246688" stroke="#246688"></path><path d="M633 87L606 54L599 126Z" fill="#00101c" stroke="#00101c"></path><path d="M244 189L301 251L301 182Z" fill="#297ea6" stroke="#297ea6"></path><path d="M244 189L229 255L301 251Z" fill="#246688" stroke="#246688"></path><path d="M268 327L210 362L271 376Z" fill="#0c2435" stroke="#0c2435"></path><path d="M271 376L213 427L276 425Z" fill="#277297" stroke="#277297"></path><path d="M451 0L437 83L482 56Z" fill="#19435d" stroke="#19435d"></path><path d="M451 0L398 40L437 83Z" fill="#205a7a" stroke="#205a7a"></path><path d="M285 104L244 189L301 182Z" fill="#19435d" stroke="#19435d"></path><path d="M285 104L301 182L334 106Z" fill="#00101c" stroke="#00101c"></path><path d="M769 330L684 322L692 367Z" fill="#081a28" stroke="#081a28"></path><path d="M764 164L742 136L687 192Z" fill="#0c2435" stroke="#0c2435"></path><path d="M769 330L778 431L803 352Z" fill="#081a28" stroke="#081a28"></path><path d="M661 487L680 476L611 445Z" fill="#00101c" stroke="#00101c"></path><path d="M281 480L299 476L290 448Z" fill="#081a28" stroke="#081a28"></path><path d="M290 448L299 476L393 427Z" fill="#277297" stroke="#277297"></path><path d="M531 540L602 540L558 510Z" fill="#1d4e6b" stroke="#1d4e6b"></path><path d="M661 487L684 540L680 476Z" fill="#00101c" stroke="#00101c"></path><path d="M293 48L285 104L334 106Z" fill="#19435d" stroke="#19435d"></path><path d="M769 330L692 367L778 431Z" fill="#112e42" stroke="#112e42"></path><path d="M208 468L281 480L276 425Z" fill="#19435d" stroke="#19435d"></path><path d="M276 425L281 480L290 448Z" fill="#277297" stroke="#277297"></path><path d="M299 476L357 540L390 478Z" fill="#19435d" stroke="#19435d"></path><path d="M299 540L357 540L299 476Z" fill="#1d4e6b" stroke="#1d4e6b"></path><path d="M606 54L495 0L482 56Z" fill="#0c2435" stroke="#0c2435"></path><path d="M196 311L210 362L268 327Z" fill="#277297" stroke="#277297"></path><path d="M495 0L451 0L482 56Z" fill="#112e42" stroke="#112e42"></path><path d="M398 40L293 48L334 106Z" fill="#0c2435" stroke="#0c2435"></path><path d="M764 164L721 251L756 270Z" fill="#15384f" stroke="#15384f"></path><path d="M764 164L687 192L721 251Z" fill="#19435d" stroke="#19435d"></path><path d="M653 0L596 0L606 54Z" fill="#19435d" stroke="#19435d"></path><path d="M229 255L196 311L268 327Z" fill="#081a28" stroke="#081a28"></path><path d="M151 270L196 311L229 255Z" fill="#112e42" stroke="#112e42"></path><path d="M602 540L656 540L661 487Z" fill="#297ea6" stroke="#297ea6"></path><path d="M680 476L742 483L688 414Z" fill="#1d4e6b" stroke="#1d4e6b"></path><path d="M823 275L764 164L756 270Z" fill="#081a28" stroke="#081a28"></path><path d="M803 352L795 295L769 330Z" fill="#15384f" stroke="#15384f"></path><path d="M769 330L795 295L756 270Z" fill="#0c2435" stroke="#0c2435"></path><path d="M653 0L606 54L633 87Z" fill="#081a28" stroke="#081a28"></path><path d="M606 54L596 0L495 0Z" fill="#297ea6" stroke="#297ea6"></path><path d="M451 0L384 0L398 40Z" fill="#19435d" stroke="#19435d"></path><path d="M210 362L213 427L271 376Z" fill="#1d4e6b" stroke="#1d4e6b"></path><path d="M281 480L299 540L299 476Z" fill="#00101c" stroke="#00101c"></path><path d="M145 449L213 427L210 362Z" fill="#246688" stroke="#246688"></path><path d="M753 56L733 94L806 104Z" fill="#205a7a" stroke="#205a7a"></path><path d="M742 136L733 94L643 106Z" fill="#0c2435" stroke="#0c2435"></path><path d="M384 0L293 48L398 40Z" fill="#0c2435" stroke="#0c2435"></path><path d="M285 104L193 167L244 189Z" fill="#205a7a" stroke="#205a7a"></path><path d="M244 189L171 222L229 255Z" fill="#19435d" stroke="#19435d"></path><path d="M261 540L299 540L281 480Z" fill="#081a28" stroke="#081a28"></path><path d="M656 540L684 540L661 487Z" fill="#277297" stroke="#277297"></path><path d="M684 540L742 483L680 476Z" fill="#277297" stroke="#277297"></path><path d="M778 431L692 367L688 414Z" fill="#081a28" stroke="#081a28"></path><path d="M742 483L778 431L688 414Z" fill="#00101c" stroke="#00101c"></path><path d="M183 119L193 167L285 104Z" fill="#297ea6" stroke="#297ea6"></path><path d="M193 167L171 222L244 189Z" fill="#277297" stroke="#277297"></path><path d="M145 449L208 468L213 427Z" fill="#297ea6" stroke="#297ea6"></path><path d="M722 44L653 0L633 87Z" fill="#1d4e6b" stroke="#1d4e6b"></path><path d="M803 352L823 275L795 295Z" fill="#205a7a" stroke="#205a7a"></path><path d="M795 295L823 275L756 270Z" fill="#112e42" stroke="#112e42"></path><path d="M753 56L722 44L733 94Z" fill="#112e42" stroke="#112e42"></path><path d="M140 346L210 362L196 311Z" fill="#19435d" stroke="#19435d"></path><path d="M213 427L208 468L276 425Z" fill="#205a7a" stroke="#205a7a"></path><path d="M733 94L722 44L643 106Z" fill="#00101c" stroke="#00101c"></path><path d="M733 94L742 136L806 104Z" fill="#19435d" stroke="#19435d"></path><path d="M152 248L229 255L171 222Z" fill="#246688" stroke="#246688"></path><path d="M152 248L151 270L229 255Z" fill="#1d4e6b" stroke="#1d4e6b"></path><path d="M208 468L261 540L281 480Z" fill="#297ea6" stroke="#297ea6"></path><path d="M118 193L152 248L171 222Z" fill="#1d4e6b" stroke="#1d4e6b"></path><path d="M384 0L304 0L293 48Z" fill="#19435d" stroke="#19435d"></path><path d="M293 48L250 34L285 104Z" fill="#15384f" stroke="#15384f"></path><path d="M778 431L810 424L803 352Z" fill="#246688" stroke="#246688"></path><path d="M803 352L899 289L823 275Z" fill="#15384f" stroke="#15384f"></path><path d="M841 487L810 424L778 431Z" fill="#277297" stroke="#277297"></path><path d="M841 487L778 431L742 483Z" fill="#00101c" stroke="#00101c"></path><path d="M275 0L250 34L293 48Z" fill="#081a28" stroke="#081a28"></path><path d="M193 167L118 193L171 222Z" fill="#1d4e6b" stroke="#1d4e6b"></path><path d="M250 34L183 119L285 104Z" fill="#00101c" stroke="#00101c"></path><path d="M806 104L742 136L764 164Z" fill="#19435d" stroke="#19435d"></path><path d="M722 44L732 0L653 0Z" fill="#112e42" stroke="#112e42"></path><path d="M57 264L140 346L151 270Z" fill="#277297" stroke="#277297"></path><path d="M151 270L140 346L196 311Z" fill="#0c2435" stroke="#0c2435"></path><path d="M304 0L275 0L293 48Z" fill="#277297" stroke="#277297"></path><path d="M123 98L118 193L183 119Z" fill="#1d4e6b" stroke="#1d4e6b"></path><path d="M861 159L806 104L764 164Z" fill="#297ea6" stroke="#297ea6"></path><path d="M684 540L762 540L742 483Z" fill="#297ea6" stroke="#297ea6"></path><path d="M823 275L857 216L764 164Z" fill="#19435d" stroke="#19435d"></path><path d="M899 289L857 216L823 275Z" fill="#112e42" stroke="#112e42"></path><path d="M789 0L732 0L753 56Z" fill="#297ea6" stroke="#297ea6"></path><path d="M753 56L732 0L722 44Z" fill="#205a7a" stroke="#205a7a"></path><path d="M140 346L145 449L210 362Z" fill="#19435d" stroke="#19435d"></path><path d="M208 468L161 540L261 540Z" fill="#297ea6" stroke="#297ea6"></path><path d="M183 119L118 193L193 167Z" fill="#112e42" stroke="#112e42"></path><path d="M152 248L57 264L151 270Z" fill="#00101c" stroke="#00101c"></path><path d="M140 346L103 438L145 449Z" fill="#00101c" stroke="#00101c"></path><path d="M167 77L183 119L250 34Z" fill="#205a7a" stroke="#205a7a"></path><path d="M185 0L167 77L250 34Z" fill="#0c2435" stroke="#0c2435"></path><path d="M857 216L861 159L764 164Z" fill="#205a7a" stroke="#205a7a"></path><path d="M806 104L815 56L753 56Z" fill="#112e42" stroke="#112e42"></path><path d="M867 108L815 56L806 104Z" fill="#19435d" stroke="#19435d"></path><path d="M762 540L841 487L742 483Z" fill="#246688" stroke="#246688"></path><path d="M904 380L899 289L803 352Z" fill="#277297" stroke="#277297"></path><path d="M857 216L910 214L861 159Z" fill="#297ea6" stroke="#297ea6"></path><path d="M904 380L803 352L810 424Z" fill="#19435d" stroke="#19435d"></path><path d="M123 29L123 98L167 77Z" fill="#15384f" stroke="#15384f"></path><path d="M167 77L123 98L183 119Z" fill="#246688" stroke="#246688"></path><path d="M145 449L161 540L208 468Z" fill="#15384f" stroke="#15384f"></path><path d="M57 264L152 248L118 193Z" fill="#246688" stroke="#246688"></path><path d="M78 450L103 438L48 378Z" fill="#297ea6" stroke="#297ea6"></path><path d="M145 449L150 540L161 540Z" fill="#15384f" stroke="#15384f"></path><path d="M815 56L789 0L753 56Z" fill="#246688" stroke="#246688"></path><path d="M861 159L867 108L806 104Z" fill="#15384f" stroke="#15384f"></path><path d="M815 56L835 0L789 0Z" fill="#277297" stroke="#277297"></path><path d="M900 150L867 108L861 159Z" fill="#00101c" stroke="#00101c"></path><path d="M275 0L185 0L250 34Z" fill="#00101c" stroke="#00101c"></path><path d="M67 486L150 540L145 449Z" fill="#00101c" stroke="#00101c"></path><path d="M908 400L904 380L810 424Z" fill="#1d4e6b" stroke="#1d4e6b"></path><path d="M960 267L910 214L899 289Z" fill="#19435d" stroke="#19435d"></path><path d="M899 289L910 214L857 216Z" fill="#0c2435" stroke="#0c2435"></path><path d="M841 487L908 400L810 424Z" fill="#205a7a" stroke="#205a7a"></path><path d="M960 315L960 267L899 289Z" fill="#246688" stroke="#246688"></path><path d="M910 214L900 150L861 159Z" fill="#297ea6" stroke="#297ea6"></path><path d="M892 34L835 0L815 56Z" fill="#00101c" stroke="#00101c"></path><path d="M73 154L57 264L118 193Z" fill="#0c2435" stroke="#0c2435"></path><path d="M762 540L849 540L841 487Z" fill="#277297" stroke="#277297"></path><path d="M841 487L916 466L908 400Z" fill="#205a7a" stroke="#205a7a"></path><path d="M123 98L73 154L118 193Z" fill="#081a28" stroke="#081a28"></path><path d="M43 127L73 154L123 98Z" fill="#297ea6" stroke="#297ea6"></path><path d="M48 378L103 438L140 346Z" fill="#19435d" stroke="#19435d"></path><path d="M103 438L67 486L145 449Z" fill="#1d4e6b" stroke="#1d4e6b"></path><path d="M0 223L43 272L57 264Z" fill="#277297" stroke="#277297"></path><path d="M57 264L43 272L140 346Z" fill="#246688" stroke="#246688"></path><path d="M892 34L815 56L867 108Z" fill="#1d4e6b" stroke="#1d4e6b"></path><path d="M185 0L123 29L167 77Z" fill="#1d4e6b" stroke="#1d4e6b"></path><path d="M849 540L865 540L841 487Z" fill="#00101c" stroke="#00101c"></path><path d="M43 272L48 378L140 346Z" fill="#0c2435" stroke="#0c2435"></path><path d="M123 29L89 64L123 98Z" fill="#15384f" stroke="#15384f"></path><path d="M73 154L0 223L57 264Z" fill="#00101c" stroke="#00101c"></path><path d="M865 540L916 466L841 487Z" fill="#0c2435" stroke="#0c2435"></path><path d="M960 315L899 289L904 380Z" fill="#277297" stroke="#277297"></path><path d="M185 0L129 0L123 29Z" fill="#277297" stroke="#277297"></path><path d="M123 29L82 0L89 64Z" fill="#19435d" stroke="#19435d"></path><path d="M78 450L67 486L103 438Z" fill="#15384f" stroke="#15384f"></path><path d="M0 450L67 486L78 450Z" fill="#15384f" stroke="#15384f"></path><path d="M960 315L904 380L960 361Z" fill="#297ea6" stroke="#297ea6"></path><path d="M910 214L960 200L900 150Z" fill="#297ea6" stroke="#297ea6"></path><path d="M960 63L892 34L867 108Z" fill="#1d4e6b" stroke="#1d4e6b"></path><path d="M960 361L904 380L908 400Z" fill="#0c2435" stroke="#0c2435"></path><path d="M960 437L960 361L908 400Z" fill="#1d4e6b" stroke="#1d4e6b"></path><path d="M89 64L43 127L123 98Z" fill="#081a28" stroke="#081a28"></path><path d="M0 127L43 127L0 79Z" fill="#112e42" stroke="#112e42"></path><path d="M960 109L867 108L900 150Z" fill="#19435d" stroke="#19435d"></path><path d="M960 267L960 200L910 214Z" fill="#00101c" stroke="#00101c"></path><path d="M0 223L0 283L43 272Z" fill="#19435d" stroke="#19435d"></path><path d="M43 272L0 283L48 378Z" fill="#112e42" stroke="#112e42"></path><path d="M48 378L0 450L78 450Z" fill="#297ea6" stroke="#297ea6"></path><path d="M960 464L960 437L916 466Z" fill="#297ea6" stroke="#297ea6"></path><path d="M916 466L960 437L908 400Z" fill="#15384f" stroke="#15384f"></path><path d="M0 155L0 223L73 154Z" fill="#00101c" stroke="#00101c"></path><path d="M0 283L0 371L48 378Z" fill="#1d4e6b" stroke="#1d4e6b"></path><path d="M129 0L82 0L123 29Z" fill="#246688" stroke="#246688"></path><path d="M43 127L0 155L73 154Z" fill="#277297" stroke="#277297"></path><path d="M960 540L960 464L916 466Z" fill="#112e42" stroke="#112e42"></path><path d="M960 0L900 0L892 34Z" fill="#1d4e6b" stroke="#1d4e6b"></path><path d="M892 34L900 0L835 0Z" fill="#0c2435" stroke="#0c2435"></path><path d="M960 200L960 109L900 150Z" fill="#277297" stroke="#277297"></path><path d="M0 482L52 540L67 486Z" fill="#297ea6" stroke="#297ea6"></path><path d="M67 486L52 540L150 540Z" fill="#277297" stroke="#277297"></path><path d="M0 127L0 155L43 127Z" fill="#205a7a" stroke="#205a7a"></path><path d="M0 371L0 450L48 378Z" fill="#00101c" stroke="#00101c"></path><path d="M0 79L43 127L89 64Z" fill="#277297" stroke="#277297"></path><path d="M960 109L960 63L867 108Z" fill="#205a7a" stroke="#205a7a"></path><path d="M0 450L0 482L67 486Z" fill="#277297" stroke="#277297"></path><path d="M865 540L960 540L916 466Z" fill="#246688" stroke="#246688"></path><path d="M0 0L0 79L89 64Z" fill="#00101c" stroke="#00101c"></path><path d="M0 482L0 540L52 540Z" fill="#00101c" stroke="#00101c"></path><path d="M960 63L960 0L892 34Z" fill="#277297" stroke="#277297"></path><path d="M82 0L0 0L89 64Z" fill="#00101c" stroke="#00101c"></path></g></svg>