<svg id="visual" viewBox="0 0 540 960" width="540" height="960" xmlns="http://www.w3.org/2000/svg" xmlns:xlink="http://www.w3.org/1999/xlink" version="1.1"><g stroke-width="1" stroke-linejoin="bevel"><path d="M259 528L216.5 571L277 599Z" fill="#1c0000" stroke="#1c0000"></path><path d="M216.5 571L204.5 613L277 599Z" fill="#1c0000" stroke="#1c0000"></path><path d="M259 528L178.5 523L216.5 571Z" fill="#cf0014" stroke="#cf0014"></path><path d="M113 584L149 631L204.5 613Z" fill="#e7000e" stroke="#e7000e"></path><path d="M331.5 636L348.5 598L277 599Z" fill="#ff0000" stroke="#ff0000"></path><path d="M277 599L348.5 598L259 528Z" fill="#a00019" stroke="#a00019"></path><path d="M204.5 613L289 661L277 599Z" fill="#a00019" stroke="#a00019"></path><path d="M289 661L331.5 636L277 599Z" fill="#cf0014" stroke="#cf0014"></path><path d="M348.5 598L320.5 487L259 528Z" fill="#430b11" stroke="#430b11"></path><path d="M259 528L201.5 469L178.5 523Z" fill="#cf0014" stroke="#cf0014"></path><path d="M283 425L201.5 469L259 528Z" fill="#880419" stroke="#880419"></path><path d="M129 475L142 517L178.5 523Z" fill="#710818" stroke="#710818"></path><path d="M113 584L204.5 613L216.5 571Z" fill="#b80018" stroke="#b80018"></path><path d="M113 584L216.5 571L178.5 523Z" fill="#2e0a0a" stroke="#2e0a0a"></path><path d="M198.5 706L294 685L289 661Z" fill="#a00019" stroke="#a00019"></path><path d="M198.5 706L289 661L204.5 613Z" fill="#880419" stroke="#880419"></path><path d="M289 661L294 685L331.5 636Z" fill="#430b11" stroke="#430b11"></path><path d="M428 635L397 551L348.5 598Z" fill="#e7000e" stroke="#e7000e"></path><path d="M348.5 598L397 551L320.5 487Z" fill="#ff0000" stroke="#ff0000"></path><path d="M428 635L348.5 598L331.5 636Z" fill="#430b11" stroke="#430b11"></path><path d="M142 517L113 584L178.5 523Z" fill="#e7000e" stroke="#e7000e"></path><path d="M312.5 424L283 425L320.5 487Z" fill="#e7000e" stroke="#e7000e"></path><path d="M320.5 487L283 425L259 528Z" fill="#ff0000" stroke="#ff0000"></path><path d="M113 727L198.5 706L149 631Z" fill="#ff0000" stroke="#ff0000"></path><path d="M149 631L198.5 706L204.5 613Z" fill="#5a0a15" stroke="#5a0a15"></path><path d="M395 422L312.5 424L320.5 487Z" fill="#b80018" stroke="#b80018"></path><path d="M366.5 738L339.5 698L289 775Z" fill="#b80018" stroke="#b80018"></path><path d="M294 685L339.5 698L331.5 636Z" fill="#710818" stroke="#710818"></path><path d="M96.5 463L129 475L152 388Z" fill="#ff0000" stroke="#ff0000"></path><path d="M201.5 469L129 475L178.5 523Z" fill="#e7000e" stroke="#e7000e"></path><path d="M142 517L77.5 522L113 584Z" fill="#ff0000" stroke="#ff0000"></path><path d="M468.5 545L422 522L397 551Z" fill="#710818" stroke="#710818"></path><path d="M397 551L422 522L320.5 487Z" fill="#2e0a0a" stroke="#2e0a0a"></path><path d="M312.5 424L310.5 398L283 425Z" fill="#e7000e" stroke="#e7000e"></path><path d="M152 388L129 475L201.5 469Z" fill="#e7000e" stroke="#e7000e"></path><path d="M395 422L310.5 398L312.5 424Z" fill="#e7000e" stroke="#e7000e"></path><path d="M129 475L77.5 522L142 517Z" fill="#ff0000" stroke="#ff0000"></path><path d="M339.5 698L428 635L331.5 636Z" fill="#1c0000" stroke="#1c0000"></path><path d="M223.5 376L201.5 469L283 425Z" fill="#2e0a0a" stroke="#2e0a0a"></path><path d="M129 475L96.5 463L77.5 522Z" fill="#e7000e" stroke="#e7000e"></path><path d="M279 361L223.5 376L283 425Z" fill="#5a0a15" stroke="#5a0a15"></path><path d="M451.5 683L441.5 629L428 635Z" fill="#cf0014" stroke="#cf0014"></path><path d="M428 635L441.5 629L397 551Z" fill="#e7000e" stroke="#e7000e"></path><path d="M422 522L395 422L320.5 487Z" fill="#710818" stroke="#710818"></path><path d="M289 775L339.5 698L294 685Z" fill="#b80018" stroke="#b80018"></path><path d="M339.5 698L415 726L428 635Z" fill="#430b11" stroke="#430b11"></path><path d="M0 502L50.5 552L77.5 522Z" fill="#5a0a15" stroke="#5a0a15"></path><path d="M77.5 522L50.5 552L113 584Z" fill="#430b11" stroke="#430b11"></path><path d="M86.5 704L113 727L149 631Z" fill="#b80018" stroke="#b80018"></path><path d="M223.5 376L152 388L201.5 469Z" fill="#2e0a0a" stroke="#2e0a0a"></path><path d="M366.5 313L279 361L310.5 398Z" fill="#430b11" stroke="#430b11"></path><path d="M310.5 398L279 361L283 425Z" fill="#880419" stroke="#880419"></path><path d="M223.5 376L153 300L152 388Z" fill="#ff0000" stroke="#ff0000"></path><path d="M198.5 706L289 775L294 685Z" fill="#2e0a0a" stroke="#2e0a0a"></path><path d="M86.5 704L149 631L36.5 660Z" fill="#ff0000" stroke="#ff0000"></path><path d="M198.5 706L205.5 783L289 775Z" fill="#2e0a0a" stroke="#2e0a0a"></path><path d="M441.5 629L468.5 545L397 551Z" fill="#2e0a0a" stroke="#2e0a0a"></path><path d="M454.5 442L413 399L395 422Z" fill="#2e0a0a" stroke="#2e0a0a"></path><path d="M36.5 660L149 631L113 584Z" fill="#ff0000" stroke="#ff0000"></path><path d="M139 787L205.5 783L198.5 706Z" fill="#5a0a15" stroke="#5a0a15"></path><path d="M421 744L415 726L366.5 738Z" fill="#2e0a0a" stroke="#2e0a0a"></path><path d="M366.5 738L415 726L339.5 698Z" fill="#b80018" stroke="#b80018"></path><path d="M540 566L502.5 531L468.5 545Z" fill="#710818" stroke="#710818"></path><path d="M415 726L451.5 683L428 635Z" fill="#1c0000" stroke="#1c0000"></path><path d="M454.5 442L395 422L422 522Z" fill="#1c0000" stroke="#1c0000"></path><path d="M395 422L413 399L310.5 398Z" fill="#cf0014" stroke="#cf0014"></path><path d="M366.5 313L268 336L279 361Z" fill="#710818" stroke="#710818"></path><path d="M279 361L268 336L223.5 376Z" fill="#e7000e" stroke="#e7000e"></path><path d="M468.5 545L454.5 442L422 522Z" fill="#710818" stroke="#710818"></path><path d="M50.5 552L36.5 660L113 584Z" fill="#e7000e" stroke="#e7000e"></path><path d="M227.5 841L245 807L205.5 783Z" fill="#ff0000" stroke="#ff0000"></path><path d="M205.5 783L245 807L289 775Z" fill="#e7000e" stroke="#e7000e"></path><path d="M443.5 786L421 744L366.5 738Z" fill="#2e0a0a" stroke="#2e0a0a"></path><path d="M333.5 805L366.5 738L289 775Z" fill="#1c0000" stroke="#1c0000"></path><path d="M415 726L421 744L451.5 683Z" fill="#880419" stroke="#880419"></path><path d="M133 817L139 787L58.5 818Z" fill="#880419" stroke="#880419"></path><path d="M113 727L139 787L198.5 706Z" fill="#2e0a0a" stroke="#2e0a0a"></path><path d="M139 787L113 727L58.5 818Z" fill="#ff0000" stroke="#ff0000"></path><path d="M540 566L468.5 545L441.5 629Z" fill="#5a0a15" stroke="#5a0a15"></path><path d="M468.5 545L502.5 531L454.5 442Z" fill="#ff0000" stroke="#ff0000"></path><path d="M245 807L333.5 805L289 775Z" fill="#ff0000" stroke="#ff0000"></path><path d="M50.5 552L0 599L36.5 660Z" fill="#1c0000" stroke="#1c0000"></path><path d="M0 502L0 599L50.5 552Z" fill="#cf0014" stroke="#cf0014"></path><path d="M0 599L0 625L36.5 660Z" fill="#880419" stroke="#880419"></path><path d="M37.5 756L113 727L86.5 704Z" fill="#a00019" stroke="#a00019"></path><path d="M0 435L0 502L96.5 463Z" fill="#ff0000" stroke="#ff0000"></path><path d="M96.5 463L0 502L77.5 522Z" fill="#880419" stroke="#880419"></path><path d="M249 257L229.5 301L268 336Z" fill="#2e0a0a" stroke="#2e0a0a"></path><path d="M268 336L229.5 301L223.5 376Z" fill="#ff0000" stroke="#ff0000"></path><path d="M152 388L67.5 354L96.5 463Z" fill="#1c0000" stroke="#1c0000"></path><path d="M133 817L227.5 841L205.5 783Z" fill="#1c0000" stroke="#1c0000"></path><path d="M245 807L266 889L333.5 805Z" fill="#710818" stroke="#710818"></path><path d="M429 337L366.5 313L413 399Z" fill="#cf0014" stroke="#cf0014"></path><path d="M413 399L366.5 313L310.5 398Z" fill="#ff0000" stroke="#ff0000"></path><path d="M139 787L133 817L205.5 783Z" fill="#2e0a0a" stroke="#2e0a0a"></path><path d="M0 697L86.5 704L36.5 660Z" fill="#880419" stroke="#880419"></path><path d="M153 300L67.5 354L152 388Z" fill="#a00019" stroke="#a00019"></path><path d="M540 641L540 566L441.5 629Z" fill="#1c0000" stroke="#1c0000"></path><path d="M502.5 531L540 487L454.5 442Z" fill="#ff0000" stroke="#ff0000"></path><path d="M488.5 377L429 337L413 399Z" fill="#cf0014" stroke="#cf0014"></path><path d="M540 641L441.5 629L451.5 683Z" fill="#ff0000" stroke="#ff0000"></path><path d="M229.5 301L153 300L223.5 376Z" fill="#5a0a15" stroke="#5a0a15"></path><path d="M0 625L0 697L36.5 660Z" fill="#430b11" stroke="#430b11"></path><path d="M67.5 354L0 435L96.5 463Z" fill="#880419" stroke="#880419"></path><path d="M488.5 377L413 399L454.5 442Z" fill="#cf0014" stroke="#cf0014"></path><path d="M0 697L37.5 756L86.5 704Z" fill="#e7000e" stroke="#e7000e"></path><path d="M333.5 805L443.5 786L366.5 738Z" fill="#5a0a15" stroke="#5a0a15"></path><path d="M421 744L443.5 786L451.5 683Z" fill="#a00019" stroke="#a00019"></path><path d="M374 860L443.5 786L333.5 805Z" fill="#710818" stroke="#710818"></path><path d="M540 691L540 641L451.5 683Z" fill="#710818" stroke="#710818"></path><path d="M540 566L540 487L502.5 531Z" fill="#ff0000" stroke="#ff0000"></path><path d="M540 464L488.5 377L454.5 442Z" fill="#cf0014" stroke="#cf0014"></path><path d="M540 487L540 464L454.5 442Z" fill="#880419" stroke="#880419"></path><path d="M133 817L220.5 872L227.5 841Z" fill="#880419" stroke="#880419"></path><path d="M227.5 841L266 889L245 807Z" fill="#5a0a15" stroke="#5a0a15"></path><path d="M313.5 246L249 257L268 336Z" fill="#e7000e" stroke="#e7000e"></path><path d="M229.5 301L210.5 245L153 300Z" fill="#b80018" stroke="#b80018"></path><path d="M313.5 246L268 336L366.5 313Z" fill="#710818" stroke="#710818"></path><path d="M497.5 805L540 691L451.5 683Z" fill="#2e0a0a" stroke="#2e0a0a"></path><path d="M361.5 879L374 860L333.5 805Z" fill="#710818" stroke="#710818"></path><path d="M443.5 786L497.5 805L451.5 683Z" fill="#430b11" stroke="#430b11"></path><path d="M61.5 261L43.5 328L67.5 354Z" fill="#430b11" stroke="#430b11"></path><path d="M67.5 354L0 365L0 435Z" fill="#b80018" stroke="#b80018"></path><path d="M61.5 261L67.5 354L153 300Z" fill="#1c0000" stroke="#1c0000"></path><path d="M0 803L58.5 818L37.5 756Z" fill="#5a0a15" stroke="#5a0a15"></path><path d="M37.5 756L58.5 818L113 727Z" fill="#1c0000" stroke="#1c0000"></path><path d="M133 817L163 911L220.5 872Z" fill="#a00019" stroke="#a00019"></path><path d="M220.5 872L266 889L227.5 841Z" fill="#5a0a15" stroke="#5a0a15"></path><path d="M239 960L266 889L220.5 872Z" fill="#a00019" stroke="#a00019"></path><path d="M249 257L210.5 245L229.5 301Z" fill="#2e0a0a" stroke="#2e0a0a"></path><path d="M43.5 328L0 365L67.5 354Z" fill="#a00019" stroke="#a00019"></path><path d="M374 256L366.5 313L429 337Z" fill="#430b11" stroke="#430b11"></path><path d="M374 256L313.5 246L366.5 313Z" fill="#430b11" stroke="#430b11"></path><path d="M249 257L271 208L210.5 245Z" fill="#2e0a0a" stroke="#2e0a0a"></path><path d="M0 697L0 774L37.5 756Z" fill="#880419" stroke="#880419"></path><path d="M266 889L361.5 879L333.5 805Z" fill="#430b11" stroke="#430b11"></path><path d="M430 866L497.5 805L443.5 786Z" fill="#b80018" stroke="#b80018"></path><path d="M469.5 295L374 256L429 337Z" fill="#b80018" stroke="#b80018"></path><path d="M430 866L443.5 786L374 860Z" fill="#b80018" stroke="#b80018"></path><path d="M206.5 181L146 244L210.5 245Z" fill="#430b11" stroke="#430b11"></path><path d="M210.5 245L146 244L153 300Z" fill="#5a0a15" stroke="#5a0a15"></path><path d="M540 327L469.5 295L488.5 377Z" fill="#5a0a15" stroke="#5a0a15"></path><path d="M488.5 377L469.5 295L429 337Z" fill="#e7000e" stroke="#e7000e"></path><path d="M361.5 879L430 866L374 860Z" fill="#a00019" stroke="#a00019"></path><path d="M0 774L0 803L37.5 756Z" fill="#1c0000" stroke="#1c0000"></path><path d="M94.5 895L163 911L133 817Z" fill="#430b11" stroke="#430b11"></path><path d="M540 464L540 356L488.5 377Z" fill="#880419" stroke="#880419"></path><path d="M94.5 895L133 817L58.5 818Z" fill="#710818" stroke="#710818"></path><path d="M266 889L355.5 960L361.5 879Z" fill="#ff0000" stroke="#ff0000"></path><path d="M331.5 208L271 208L313.5 246Z" fill="#e7000e" stroke="#e7000e"></path><path d="M313.5 246L271 208L249 257Z" fill="#880419" stroke="#880419"></path><path d="M331.5 208L313.5 246L374 256Z" fill="#e7000e" stroke="#e7000e"></path><path d="M61.5 261L0 312L43.5 328Z" fill="#ff0000" stroke="#ff0000"></path><path d="M43.5 328L0 312L0 365Z" fill="#2e0a0a" stroke="#2e0a0a"></path><path d="M146 244L61.5 261L153 300Z" fill="#a00019" stroke="#a00019"></path><path d="M71.5 208L61.5 261L146 244Z" fill="#5a0a15" stroke="#5a0a15"></path><path d="M540 850L540 791L497.5 805Z" fill="#880419" stroke="#880419"></path><path d="M497.5 805L540 791L540 691Z" fill="#a00019" stroke="#a00019"></path><path d="M0 904L94.5 895L58.5 818Z" fill="#a00019" stroke="#a00019"></path><path d="M403 208L331.5 208L374 256Z" fill="#ff0000" stroke="#ff0000"></path><path d="M540 356L540 327L488.5 377Z" fill="#1c0000" stroke="#1c0000"></path><path d="M469.5 295L458.5 241L374 256Z" fill="#880419" stroke="#880419"></path><path d="M540 230L458.5 241L469.5 295Z" fill="#710818" stroke="#710818"></path><path d="M458.5 241L403 208L374 256Z" fill="#5a0a15" stroke="#5a0a15"></path><path d="M206.5 181L271 208L287 126Z" fill="#880419" stroke="#880419"></path><path d="M193.5 141L206.5 181L287 126Z" fill="#b80018" stroke="#b80018"></path><path d="M271 208L206.5 181L210.5 245Z" fill="#1c0000" stroke="#1c0000"></path><path d="M219.5 960L220.5 872L163 911Z" fill="#5a0a15" stroke="#5a0a15"></path><path d="M219.5 960L239 960L220.5 872Z" fill="#2e0a0a" stroke="#2e0a0a"></path><path d="M435 960L489.5 892L430 866Z" fill="#2e0a0a" stroke="#2e0a0a"></path><path d="M153 960L219.5 960L163 911Z" fill="#2e0a0a" stroke="#2e0a0a"></path><path d="M540 204L451.5 221L458.5 241Z" fill="#2e0a0a" stroke="#2e0a0a"></path><path d="M458.5 241L451.5 221L403 208Z" fill="#430b11" stroke="#430b11"></path><path d="M435 960L430 866L361.5 879Z" fill="#880419" stroke="#880419"></path><path d="M430 866L489.5 892L497.5 805Z" fill="#880419" stroke="#880419"></path><path d="M489.5 892L540 850L497.5 805Z" fill="#a00019" stroke="#a00019"></path><path d="M147 166L71.5 208L146 244Z" fill="#e7000e" stroke="#e7000e"></path><path d="M61.5 261L0 229L0 312Z" fill="#710818" stroke="#710818"></path><path d="M239 960L355.5 960L266 889Z" fill="#cf0014" stroke="#cf0014"></path><path d="M55.5 960L153 960L94.5 895Z" fill="#5a0a15" stroke="#5a0a15"></path><path d="M94.5 895L153 960L163 911Z" fill="#5a0a15" stroke="#5a0a15"></path><path d="M193.5 141L147 166L206.5 181Z" fill="#710818" stroke="#710818"></path><path d="M206.5 181L147 166L146 244Z" fill="#e7000e" stroke="#e7000e"></path><path d="M0 803L0 904L58.5 818Z" fill="#2e0a0a" stroke="#2e0a0a"></path><path d="M0 219L0 229L71.5 208Z" fill="#a00019" stroke="#a00019"></path><path d="M71.5 208L0 229L61.5 261Z" fill="#5a0a15" stroke="#5a0a15"></path><path d="M540 960L540 889L489.5 892Z" fill="#ff0000" stroke="#ff0000"></path><path d="M489.5 892L540 889L540 850Z" fill="#1c0000" stroke="#1c0000"></path><path d="M313.5 140L271 208L331.5 208Z" fill="#430b11" stroke="#430b11"></path><path d="M42.5 140L0 219L71.5 208Z" fill="#b80018" stroke="#b80018"></path><path d="M313.5 140L331.5 208L375 136Z" fill="#5a0a15" stroke="#5a0a15"></path><path d="M375 136L331.5 208L403 208Z" fill="#cf0014" stroke="#cf0014"></path><path d="M42.5 140L71.5 208L147 166Z" fill="#1c0000" stroke="#1c0000"></path><path d="M355.5 960L435 960L361.5 879Z" fill="#a00019" stroke="#a00019"></path><path d="M540 327L540 230L469.5 295Z" fill="#b80018" stroke="#b80018"></path><path d="M488.5 100L375 136L403 208Z" fill="#710818" stroke="#710818"></path><path d="M0 904L55.5 960L94.5 895Z" fill="#5a0a15" stroke="#5a0a15"></path><path d="M322.5 88L287 126L313.5 140Z" fill="#430b11" stroke="#430b11"></path><path d="M313.5 140L287 126L271 208Z" fill="#1c0000" stroke="#1c0000"></path><path d="M108 93L165 134L218.5 72Z" fill="#2e0a0a" stroke="#2e0a0a"></path><path d="M193.5 141L165 134L147 166Z" fill="#e7000e" stroke="#e7000e"></path><path d="M435 960L465.5 960L489.5 892Z" fill="#2e0a0a" stroke="#2e0a0a"></path><path d="M488.5 100L403 208L451.5 221Z" fill="#ff0000" stroke="#ff0000"></path><path d="M540 230L540 204L458.5 241Z" fill="#1c0000" stroke="#1c0000"></path><path d="M0 904L0 960L55.5 960Z" fill="#710818" stroke="#710818"></path><path d="M108 93L147 166L165 134Z" fill="#430b11" stroke="#430b11"></path><path d="M108 93L42.5 140L147 166Z" fill="#ff0000" stroke="#ff0000"></path><path d="M375 136L322.5 88L313.5 140Z" fill="#5a0a15" stroke="#5a0a15"></path><path d="M287 126L218.5 72L193.5 141Z" fill="#710818" stroke="#710818"></path><path d="M378 86L322.5 88L375 136Z" fill="#e7000e" stroke="#e7000e"></path><path d="M465.5 960L540 960L489.5 892Z" fill="#cf0014" stroke="#cf0014"></path><path d="M42.5 140L0 150L0 219Z" fill="#2e0a0a" stroke="#2e0a0a"></path><path d="M218.5 72L165 134L193.5 141Z" fill="#2e0a0a" stroke="#2e0a0a"></path><path d="M42.5 140L52.5 64L0 150Z" fill="#2e0a0a" stroke="#2e0a0a"></path><path d="M282 44L218.5 72L287 126Z" fill="#a00019" stroke="#a00019"></path><path d="M488.5 100L378 86L375 136Z" fill="#2e0a0a" stroke="#2e0a0a"></path><path d="M322.5 88L282 44L287 126Z" fill="#1c0000" stroke="#1c0000"></path><path d="M540 204L488.5 100L451.5 221Z" fill="#ff0000" stroke="#ff0000"></path><path d="M323.5 0L322.5 88L378 86Z" fill="#ff0000" stroke="#ff0000"></path><path d="M323.5 0L282 44L322.5 88Z" fill="#e7000e" stroke="#e7000e"></path><path d="M96.5 0L52.5 64L108 93Z" fill="#2e0a0a" stroke="#2e0a0a"></path><path d="M540 204L540 115L488.5 100Z" fill="#ff0000" stroke="#ff0000"></path><path d="M159 0L108 93L218.5 72Z" fill="#a00019" stroke="#a00019"></path><path d="M108 93L52.5 64L42.5 140Z" fill="#2e0a0a" stroke="#2e0a0a"></path><path d="M540 115L540 85L488.5 100Z" fill="#e7000e" stroke="#e7000e"></path><path d="M488.5 100L477.5 46L378 86Z" fill="#710818" stroke="#710818"></path><path d="M540 85L477.5 46L488.5 100Z" fill="#2e0a0a" stroke="#2e0a0a"></path><path d="M282 44L243 0L218.5 72Z" fill="#cf0014" stroke="#cf0014"></path><path d="M323.5 0L243 0L282 44Z" fill="#e7000e" stroke="#e7000e"></path><path d="M243 0L221.5 0L218.5 72Z" fill="#5a0a15" stroke="#5a0a15"></path><path d="M378 0L323.5 0L378 86Z" fill="#cf0014" stroke="#cf0014"></path><path d="M221.5 0L159 0L218.5 72Z" fill="#710818" stroke="#710818"></path><path d="M477.5 46L378 0L378 86Z" fill="#5a0a15" stroke="#5a0a15"></path><path d="M0 0L0 39L52.5 64Z" fill="#2e0a0a" stroke="#2e0a0a"></path><path d="M52.5 64L0 39L0 150Z" fill="#ff0000" stroke="#ff0000"></path><path d="M159 0L96.5 0L108 93Z" fill="#5a0a15" stroke="#5a0a15"></path><path d="M540 0L495.5 0L477.5 46Z" fill="#1c0000" stroke="#1c0000"></path><path d="M477.5 46L495.5 0L378 0Z" fill="#430b11" stroke="#430b11"></path><path d="M96.5 0L0 0L52.5 64Z" fill="#cf0014" stroke="#cf0014"></path><path d="M540 85L540 0L477.5 46Z" fill="#430b11" stroke="#430b11"></path></g></svg>