<svg id="visual" viewBox="0 0 960 540" width="960" height="540" xmlns="http://www.w3.org/2000/svg" xmlns:xlink="http://www.w3.org/1999/xlink" version="1.1"><g stroke-width="1" stroke-linejoin="bevel"><path d="M456 285L416 220L418 303Z" fill="#1c0000" stroke="#1c0000"></path><path d="M456 285L471 237L416 220Z" fill="#430b11" stroke="#430b11"></path><path d="M416 220L378 212L418 303Z" fill="#e7000e" stroke="#e7000e"></path><path d="M378 212L332 290L418 303Z" fill="#2e0a0a" stroke="#2e0a0a"></path><path d="M471 237L452 169L416 220Z" fill="#cf0014" stroke="#cf0014"></path><path d="M416 220L378 172L378 212Z" fill="#710818" stroke="#710818"></path><path d="M401 158L378 172L416 220Z" fill="#430b11" stroke="#430b11"></path><path d="M378 212L303 260L332 290Z" fill="#5a0a15" stroke="#5a0a15"></path><path d="M452 169L401 158L416 220Z" fill="#710818" stroke="#710818"></path><path d="M319 324L398 369L418 303Z" fill="#ff0000" stroke="#ff0000"></path><path d="M499 375L519 330L456 285Z" fill="#430b11" stroke="#430b11"></path><path d="M305 172L303 260L378 212Z" fill="#a00019" stroke="#a00019"></path><path d="M332 290L319 324L418 303Z" fill="#2e0a0a" stroke="#2e0a0a"></path><path d="M499 375L456 285L418 303Z" fill="#430b11" stroke="#430b11"></path><path d="M456 285L519 330L471 237Z" fill="#e7000e" stroke="#e7000e"></path><path d="M471 237L512 155L452 169Z" fill="#cf0014" stroke="#cf0014"></path><path d="M303 260L319 324L332 290Z" fill="#2e0a0a" stroke="#2e0a0a"></path><path d="M319 324L362 381L398 369Z" fill="#5a0a15" stroke="#5a0a15"></path><path d="M499 375L537 333L519 330Z" fill="#1c0000" stroke="#1c0000"></path><path d="M499 375L418 303L398 369Z" fill="#710818" stroke="#710818"></path><path d="M519 330L562 220L471 237Z" fill="#5a0a15" stroke="#5a0a15"></path><path d="M450 420L499 375L398 369Z" fill="#5a0a15" stroke="#5a0a15"></path><path d="M562 220L512 155L471 237Z" fill="#710818" stroke="#710818"></path><path d="M452 169L408 100L401 158Z" fill="#880419" stroke="#880419"></path><path d="M303 260L303 339L319 324Z" fill="#430b11" stroke="#430b11"></path><path d="M319 324L303 339L362 381Z" fill="#cf0014" stroke="#cf0014"></path><path d="M329 417L388 401L362 381Z" fill="#2e0a0a" stroke="#2e0a0a"></path><path d="M362 381L388 401L398 369Z" fill="#cf0014" stroke="#cf0014"></path><path d="M537 333L562 220L519 330Z" fill="#880419" stroke="#880419"></path><path d="M336 129L305 172L378 172Z" fill="#1c0000" stroke="#1c0000"></path><path d="M378 172L305 172L378 212Z" fill="#ff0000" stroke="#ff0000"></path><path d="M562 220L529 147L512 155Z" fill="#430b11" stroke="#430b11"></path><path d="M512 155L468 107L452 169Z" fill="#880419" stroke="#880419"></path><path d="M408 100L336 129L401 158Z" fill="#710818" stroke="#710818"></path><path d="M401 158L336 129L378 172Z" fill="#cf0014" stroke="#cf0014"></path><path d="M305 172L270 210L303 260Z" fill="#e7000e" stroke="#e7000e"></path><path d="M303 260L247 262L303 339Z" fill="#e7000e" stroke="#e7000e"></path><path d="M221 132L270 210L305 172Z" fill="#b80018" stroke="#b80018"></path><path d="M441 423L450 420L398 369Z" fill="#e7000e" stroke="#e7000e"></path><path d="M529 147L468 107L512 155Z" fill="#1c0000" stroke="#1c0000"></path><path d="M468 107L408 100L452 169Z" fill="#2e0a0a" stroke="#2e0a0a"></path><path d="M388 401L441 423L398 369Z" fill="#5a0a15" stroke="#5a0a15"></path><path d="M537 333L593 252L562 220Z" fill="#710818" stroke="#710818"></path><path d="M562 220L583 147L529 147Z" fill="#2e0a0a" stroke="#2e0a0a"></path><path d="M270 210L247 262L303 260Z" fill="#430b11" stroke="#430b11"></path><path d="M610 340L597 301L537 333Z" fill="#cf0014" stroke="#cf0014"></path><path d="M537 333L597 301L593 252Z" fill="#1c0000" stroke="#1c0000"></path><path d="M584 394L537 333L499 375Z" fill="#880419" stroke="#880419"></path><path d="M303 339L329 417L362 381Z" fill="#5a0a15" stroke="#5a0a15"></path><path d="M388 401L403 451L441 423Z" fill="#a00019" stroke="#a00019"></path><path d="M236 375L329 417L303 339Z" fill="#cf0014" stroke="#cf0014"></path><path d="M329 417L403 451L388 401Z" fill="#b80018" stroke="#b80018"></path><path d="M441 423L497 504L450 420Z" fill="#b80018" stroke="#b80018"></path><path d="M468 107L445 67L408 100Z" fill="#1c0000" stroke="#1c0000"></path><path d="M408 100L345 63L336 129Z" fill="#710818" stroke="#710818"></path><path d="M499 49L445 67L468 107Z" fill="#430b11" stroke="#430b11"></path><path d="M199 224L228 300L247 262Z" fill="#e7000e" stroke="#e7000e"></path><path d="M247 262L228 300L303 339Z" fill="#430b11" stroke="#430b11"></path><path d="M497 504L535 423L450 420Z" fill="#b80018" stroke="#b80018"></path><path d="M450 420L535 423L499 375Z" fill="#a00019" stroke="#a00019"></path><path d="M614 182L583 147L562 220Z" fill="#5a0a15" stroke="#5a0a15"></path><path d="M529 147L499 49L468 107Z" fill="#e7000e" stroke="#e7000e"></path><path d="M584 394L610 340L537 333Z" fill="#b80018" stroke="#b80018"></path><path d="M641 212L614 182L593 252Z" fill="#710818" stroke="#710818"></path><path d="M593 252L614 182L562 220Z" fill="#b80018" stroke="#b80018"></path><path d="M641 212L593 252L658 292Z" fill="#430b11" stroke="#430b11"></path><path d="M535 423L584 394L499 375Z" fill="#b80018" stroke="#b80018"></path><path d="M413 0L345 63L408 100Z" fill="#a00019" stroke="#a00019"></path><path d="M336 129L271 101L305 172Z" fill="#a00019" stroke="#a00019"></path><path d="M345 63L297 87L336 129Z" fill="#2e0a0a" stroke="#2e0a0a"></path><path d="M270 210L199 224L247 262Z" fill="#1c0000" stroke="#1c0000"></path><path d="M228 300L236 375L303 339Z" fill="#430b11" stroke="#430b11"></path><path d="M329 417L384 479L403 451Z" fill="#5a0a15" stroke="#5a0a15"></path><path d="M297 87L271 101L336 129Z" fill="#cf0014" stroke="#cf0014"></path><path d="M330 481L384 479L329 417Z" fill="#e7000e" stroke="#e7000e"></path><path d="M403 451L497 504L441 423Z" fill="#e7000e" stroke="#e7000e"></path><path d="M658 292L593 252L597 301Z" fill="#a00019" stroke="#a00019"></path><path d="M569 60L529 147L583 147Z" fill="#430b11" stroke="#430b11"></path><path d="M221 132L199 224L270 210Z" fill="#430b11" stroke="#430b11"></path><path d="M228 300L188 362L236 375Z" fill="#2e0a0a" stroke="#2e0a0a"></path><path d="M569 60L583 147L672 101Z" fill="#2e0a0a" stroke="#2e0a0a"></path><path d="M569 60L499 49L529 147Z" fill="#1c0000" stroke="#1c0000"></path><path d="M445 67L413 0L408 100Z" fill="#880419" stroke="#880419"></path><path d="M217 431L330 481L329 417Z" fill="#880419" stroke="#880419"></path><path d="M650 342L658 292L610 340Z" fill="#430b11" stroke="#430b11"></path><path d="M610 340L658 292L597 301Z" fill="#2e0a0a" stroke="#2e0a0a"></path><path d="M271 101L221 132L305 172Z" fill="#b80018" stroke="#b80018"></path><path d="M661 396L650 342L610 340Z" fill="#b80018" stroke="#b80018"></path><path d="M672 101L583 147L614 182Z" fill="#430b11" stroke="#430b11"></path><path d="M384 479L497 504L403 451Z" fill="#5a0a15" stroke="#5a0a15"></path><path d="M609 487L661 396L584 394Z" fill="#e7000e" stroke="#e7000e"></path><path d="M584 394L661 396L610 340Z" fill="#710818" stroke="#710818"></path><path d="M397 540L497 504L384 479Z" fill="#ff0000" stroke="#ff0000"></path><path d="M168 296L188 362L228 300Z" fill="#ff0000" stroke="#ff0000"></path><path d="M236 375L217 431L329 417Z" fill="#880419" stroke="#880419"></path><path d="M131 278L168 296L199 224Z" fill="#1c0000" stroke="#1c0000"></path><path d="M199 224L168 296L228 300Z" fill="#430b11" stroke="#430b11"></path><path d="M499 0L445 67L499 49Z" fill="#1c0000" stroke="#1c0000"></path><path d="M499 0L413 0L445 67Z" fill="#2e0a0a" stroke="#2e0a0a"></path><path d="M235 0L234 78L297 87Z" fill="#880419" stroke="#880419"></path><path d="M297 87L234 78L271 101Z" fill="#430b11" stroke="#430b11"></path><path d="M271 101L234 78L221 132Z" fill="#1c0000" stroke="#1c0000"></path><path d="M312 0L297 87L345 63Z" fill="#2e0a0a" stroke="#2e0a0a"></path><path d="M221 132L170 170L199 224Z" fill="#710818" stroke="#710818"></path><path d="M569 60L544 29L499 49Z" fill="#430b11" stroke="#430b11"></path><path d="M698 234L678 198L641 212Z" fill="#ff0000" stroke="#ff0000"></path><path d="M641 212L678 198L614 182Z" fill="#e7000e" stroke="#e7000e"></path><path d="M698 234L641 212L658 292Z" fill="#880419" stroke="#880419"></path><path d="M177 406L217 431L236 375Z" fill="#a00019" stroke="#a00019"></path><path d="M199 109L170 170L221 132Z" fill="#a00019" stroke="#a00019"></path><path d="M234 78L199 109L221 132Z" fill="#a00019" stroke="#a00019"></path><path d="M544 29L499 0L499 49Z" fill="#ff0000" stroke="#ff0000"></path><path d="M413 0L341 0L345 63Z" fill="#cf0014" stroke="#cf0014"></path><path d="M609 487L584 394L535 423Z" fill="#2e0a0a" stroke="#2e0a0a"></path><path d="M706 279L698 234L658 292Z" fill="#a00019" stroke="#a00019"></path><path d="M706 279L658 292L650 342Z" fill="#1c0000" stroke="#1c0000"></path><path d="M351 540L384 479L330 481Z" fill="#2e0a0a" stroke="#2e0a0a"></path><path d="M351 540L397 540L384 479Z" fill="#430b11" stroke="#430b11"></path><path d="M341 0L312 0L345 63Z" fill="#ff0000" stroke="#ff0000"></path><path d="M234 78L178 83L199 109Z" fill="#b80018" stroke="#b80018"></path><path d="M188 362L177 406L236 375Z" fill="#710818" stroke="#710818"></path><path d="M110 368L177 406L188 362Z" fill="#1c0000" stroke="#1c0000"></path><path d="M719 372L706 279L650 342Z" fill="#2e0a0a" stroke="#2e0a0a"></path><path d="M515 540L568 506L497 504Z" fill="#710818" stroke="#710818"></path><path d="M497 504L568 506L535 423Z" fill="#cf0014" stroke="#cf0014"></path><path d="M297 540L330 481L221 509Z" fill="#b80018" stroke="#b80018"></path><path d="M297 540L351 540L330 481Z" fill="#5a0a15" stroke="#5a0a15"></path><path d="M570 0L545 0L544 29Z" fill="#a00019" stroke="#a00019"></path><path d="M544 29L545 0L499 0Z" fill="#e7000e" stroke="#e7000e"></path><path d="M570 0L544 29L569 60Z" fill="#710818" stroke="#710818"></path><path d="M118 214L131 278L199 224Z" fill="#430b11" stroke="#430b11"></path><path d="M168 296L110 368L188 362Z" fill="#e7000e" stroke="#e7000e"></path><path d="M397 540L507 540L497 504Z" fill="#e7000e" stroke="#e7000e"></path><path d="M568 506L609 487L535 423Z" fill="#cf0014" stroke="#cf0014"></path><path d="M661 488L609 487L618 540Z" fill="#710818" stroke="#710818"></path><path d="M507 540L515 540L497 504Z" fill="#430b11" stroke="#430b11"></path><path d="M698 234L706 181L678 198Z" fill="#880419" stroke="#880419"></path><path d="M678 198L672 101L614 182Z" fill="#b80018" stroke="#b80018"></path><path d="M793 252L706 181L698 234Z" fill="#710818" stroke="#710818"></path><path d="M706 181L672 101L678 198Z" fill="#e7000e" stroke="#e7000e"></path><path d="M630 0L570 0L569 60Z" fill="#5a0a15" stroke="#5a0a15"></path><path d="M172 0L178 83L234 78Z" fill="#b80018" stroke="#b80018"></path><path d="M199 109L178 83L170 170Z" fill="#2e0a0a" stroke="#2e0a0a"></path><path d="M170 170L118 214L199 224Z" fill="#ff0000" stroke="#ff0000"></path><path d="M221 509L330 481L217 431Z" fill="#cf0014" stroke="#cf0014"></path><path d="M96 190L118 214L170 170Z" fill="#ff0000" stroke="#ff0000"></path><path d="M661 396L719 372L650 342Z" fill="#430b11" stroke="#430b11"></path><path d="M788 138L725 120L706 181Z" fill="#710818" stroke="#710818"></path><path d="M725 402L719 372L661 396Z" fill="#5a0a15" stroke="#5a0a15"></path><path d="M166 482L221 509L217 431Z" fill="#430b11" stroke="#430b11"></path><path d="M312 0L235 0L297 87Z" fill="#2e0a0a" stroke="#2e0a0a"></path><path d="M725 120L677 58L672 101Z" fill="#5a0a15" stroke="#5a0a15"></path><path d="M672 101L677 58L569 60Z" fill="#ff0000" stroke="#ff0000"></path><path d="M77 343L110 368L131 278Z" fill="#cf0014" stroke="#cf0014"></path><path d="M131 278L110 368L168 296Z" fill="#e7000e" stroke="#e7000e"></path><path d="M177 406L166 482L217 431Z" fill="#5a0a15" stroke="#5a0a15"></path><path d="M618 540L609 487L568 506Z" fill="#1c0000" stroke="#1c0000"></path><path d="M609 487L661 488L661 396Z" fill="#ff0000" stroke="#ff0000"></path><path d="M100 94L96 190L170 170Z" fill="#2e0a0a" stroke="#2e0a0a"></path><path d="M118 214L80 228L131 278Z" fill="#cf0014" stroke="#cf0014"></path><path d="M100 94L170 170L178 83Z" fill="#710818" stroke="#710818"></path><path d="M221 509L237 540L297 540Z" fill="#a00019" stroke="#a00019"></path><path d="M156 540L237 540L221 509Z" fill="#5a0a15" stroke="#5a0a15"></path><path d="M677 58L630 0L569 60Z" fill="#710818" stroke="#710818"></path><path d="M730 469L725 402L661 396Z" fill="#710818" stroke="#710818"></path><path d="M781 275L698 234L706 279Z" fill="#430b11" stroke="#430b11"></path><path d="M706 181L725 120L672 101Z" fill="#2e0a0a" stroke="#2e0a0a"></path><path d="M781 275L706 279L719 372Z" fill="#e7000e" stroke="#e7000e"></path><path d="M104 393L166 482L177 406Z" fill="#880419" stroke="#880419"></path><path d="M515 540L618 540L568 506Z" fill="#5a0a15" stroke="#5a0a15"></path><path d="M96 190L80 228L118 214Z" fill="#5a0a15" stroke="#5a0a15"></path><path d="M110 368L104 393L177 406Z" fill="#880419" stroke="#880419"></path><path d="M77 343L104 393L110 368Z" fill="#a00019" stroke="#a00019"></path><path d="M31 295L77 343L131 278Z" fill="#e7000e" stroke="#e7000e"></path><path d="M798 353L781 275L719 372Z" fill="#5a0a15" stroke="#5a0a15"></path><path d="M172 0L145 29L178 83Z" fill="#1c0000" stroke="#1c0000"></path><path d="M96 190L60 183L80 228Z" fill="#e7000e" stroke="#e7000e"></path><path d="M235 0L172 0L234 78Z" fill="#430b11" stroke="#430b11"></path><path d="M145 29L100 94L178 83Z" fill="#2e0a0a" stroke="#2e0a0a"></path><path d="M100 94L60 183L96 190Z" fill="#2e0a0a" stroke="#2e0a0a"></path><path d="M80 228L31 295L131 278Z" fill="#710818" stroke="#710818"></path><path d="M862 274L793 252L781 275Z" fill="#b80018" stroke="#b80018"></path><path d="M781 275L793 252L698 234Z" fill="#2e0a0a" stroke="#2e0a0a"></path><path d="M661 488L730 469L661 396Z" fill="#a00019" stroke="#a00019"></path><path d="M725 402L798 353L719 372Z" fill="#2e0a0a" stroke="#2e0a0a"></path><path d="M684 540L730 469L661 488Z" fill="#710818" stroke="#710818"></path><path d="M51 0L51 80L100 94Z" fill="#2e0a0a" stroke="#2e0a0a"></path><path d="M172 0L149 0L145 29Z" fill="#5a0a15" stroke="#5a0a15"></path><path d="M618 540L684 540L661 488Z" fill="#430b11" stroke="#430b11"></path><path d="M778 79L734 39L725 120Z" fill="#430b11" stroke="#430b11"></path><path d="M725 120L734 39L677 58Z" fill="#2e0a0a" stroke="#2e0a0a"></path><path d="M677 58L730 0L630 0Z" fill="#880419" stroke="#880419"></path><path d="M93 477L166 482L104 393Z" fill="#a00019" stroke="#a00019"></path><path d="M129 540L156 540L166 482Z" fill="#710818" stroke="#710818"></path><path d="M166 482L156 540L221 509Z" fill="#710818" stroke="#710818"></path><path d="M809 200L788 138L706 181Z" fill="#5a0a15" stroke="#5a0a15"></path><path d="M776 427L798 353L725 402Z" fill="#b80018" stroke="#b80018"></path><path d="M793 252L810 212L706 181Z" fill="#e7000e" stroke="#e7000e"></path><path d="M786 502L776 427L730 469Z" fill="#b80018" stroke="#b80018"></path><path d="M730 469L776 427L725 402Z" fill="#2e0a0a" stroke="#2e0a0a"></path><path d="M862 274L810 212L793 252Z" fill="#710818" stroke="#710818"></path><path d="M0 269L31 295L80 228Z" fill="#880419" stroke="#880419"></path><path d="M56 424L93 477L104 393Z" fill="#e7000e" stroke="#e7000e"></path><path d="M810 212L809 200L706 181Z" fill="#1c0000" stroke="#1c0000"></path><path d="M56 424L104 393L77 343Z" fill="#5a0a15" stroke="#5a0a15"></path><path d="M0 340L56 424L77 343Z" fill="#710818" stroke="#710818"></path><path d="M788 138L778 79L725 120Z" fill="#1c0000" stroke="#1c0000"></path><path d="M816 147L778 79L788 138Z" fill="#1c0000" stroke="#1c0000"></path><path d="M61 508L129 540L93 477Z" fill="#430b11" stroke="#430b11"></path><path d="M93 477L129 540L166 482Z" fill="#880419" stroke="#880419"></path><path d="M790 0L730 0L734 39Z" fill="#430b11" stroke="#430b11"></path><path d="M734 39L730 0L677 58Z" fill="#ff0000" stroke="#ff0000"></path><path d="M100 94L33 136L60 183Z" fill="#880419" stroke="#880419"></path><path d="M60 183L0 269L80 228Z" fill="#e7000e" stroke="#e7000e"></path><path d="M51 80L33 136L100 94Z" fill="#ff0000" stroke="#ff0000"></path><path d="M867 207L816 147L809 200Z" fill="#ff0000" stroke="#ff0000"></path><path d="M809 200L816 147L788 138Z" fill="#880419" stroke="#880419"></path><path d="M867 207L809 200L810 212Z" fill="#ff0000" stroke="#ff0000"></path><path d="M51 0L100 94L145 29Z" fill="#1c0000" stroke="#1c0000"></path><path d="M811 420L826 345L798 353Z" fill="#2e0a0a" stroke="#2e0a0a"></path><path d="M798 353L826 345L781 275Z" fill="#b80018" stroke="#b80018"></path><path d="M684 540L736 540L730 469Z" fill="#a00019" stroke="#a00019"></path><path d="M776 427L811 420L798 353Z" fill="#880419" stroke="#880419"></path><path d="M786 502L811 420L776 427Z" fill="#cf0014" stroke="#cf0014"></path><path d="M0 161L0 269L60 183Z" fill="#880419" stroke="#880419"></path><path d="M31 295L0 340L77 343Z" fill="#2e0a0a" stroke="#2e0a0a"></path><path d="M0 269L0 313L31 295Z" fill="#cf0014" stroke="#cf0014"></path><path d="M0 313L0 340L31 295Z" fill="#2e0a0a" stroke="#2e0a0a"></path><path d="M56 424L61 508L93 477Z" fill="#b80018" stroke="#b80018"></path><path d="M0 111L0 161L33 136Z" fill="#b80018" stroke="#b80018"></path><path d="M33 136L0 161L60 183Z" fill="#880419" stroke="#880419"></path><path d="M736 540L786 502L730 469Z" fill="#880419" stroke="#880419"></path><path d="M0 479L61 508L56 424Z" fill="#710818" stroke="#710818"></path><path d="M882 322L862 274L826 345Z" fill="#ff0000" stroke="#ff0000"></path><path d="M826 345L862 274L781 275Z" fill="#710818" stroke="#710818"></path><path d="M876 253L862 274L882 322Z" fill="#5a0a15" stroke="#5a0a15"></path><path d="M51 80L0 111L33 136Z" fill="#880419" stroke="#880419"></path><path d="M0 45L0 111L51 80Z" fill="#b80018" stroke="#b80018"></path><path d="M876 253L867 207L810 212Z" fill="#430b11" stroke="#430b11"></path><path d="M820 0L790 0L778 79Z" fill="#2e0a0a" stroke="#2e0a0a"></path><path d="M778 79L790 0L734 39Z" fill="#1c0000" stroke="#1c0000"></path><path d="M877 130L778 79L816 147Z" fill="#880419" stroke="#880419"></path><path d="M0 340L0 424L56 424Z" fill="#ff0000" stroke="#ff0000"></path><path d="M149 0L51 0L145 29Z" fill="#e7000e" stroke="#e7000e"></path><path d="M862 274L876 253L810 212Z" fill="#a00019" stroke="#a00019"></path><path d="M882 322L826 345L871 381Z" fill="#b80018" stroke="#b80018"></path><path d="M736 540L789 540L786 502Z" fill="#a00019" stroke="#a00019"></path><path d="M901 439L871 381L811 420Z" fill="#b80018" stroke="#b80018"></path><path d="M871 381L826 345L811 420Z" fill="#a00019" stroke="#a00019"></path><path d="M856 507L811 420L786 502Z" fill="#1c0000" stroke="#1c0000"></path><path d="M0 479L39 540L61 508Z" fill="#cf0014" stroke="#cf0014"></path><path d="M61 508L39 540L129 540Z" fill="#ff0000" stroke="#ff0000"></path><path d="M51 0L0 45L51 80Z" fill="#ff0000" stroke="#ff0000"></path><path d="M912 171L867 207L876 253Z" fill="#430b11" stroke="#430b11"></path><path d="M912 171L877 130L867 207Z" fill="#430b11" stroke="#430b11"></path><path d="M867 207L877 130L816 147Z" fill="#710818" stroke="#710818"></path><path d="M0 424L0 479L56 424Z" fill="#880419" stroke="#880419"></path><path d="M856 30L820 0L778 79Z" fill="#5a0a15" stroke="#5a0a15"></path><path d="M877 130L856 30L778 79Z" fill="#a00019" stroke="#a00019"></path><path d="M51 0L0 0L0 45Z" fill="#b80018" stroke="#b80018"></path><path d="M789 540L832 540L786 502Z" fill="#430b11" stroke="#430b11"></path><path d="M960 262L912 171L876 253Z" fill="#ff0000" stroke="#ff0000"></path><path d="M877 130L893 34L856 30Z" fill="#cf0014" stroke="#cf0014"></path><path d="M960 262L876 253L960 280Z" fill="#430b11" stroke="#430b11"></path><path d="M832 540L856 507L786 502Z" fill="#1c0000" stroke="#1c0000"></path><path d="M960 352L960 280L882 322Z" fill="#a00019" stroke="#a00019"></path><path d="M0 479L0 540L39 540Z" fill="#710818" stroke="#710818"></path><path d="M856 507L901 439L811 420Z" fill="#b80018" stroke="#b80018"></path><path d="M960 102L893 34L877 130Z" fill="#2e0a0a" stroke="#2e0a0a"></path><path d="M856 30L887 0L820 0Z" fill="#ff0000" stroke="#ff0000"></path><path d="M899 540L899 489L856 507Z" fill="#a00019" stroke="#a00019"></path><path d="M856 507L899 489L901 439Z" fill="#a00019" stroke="#a00019"></path><path d="M960 280L876 253L882 322Z" fill="#880419" stroke="#880419"></path><path d="M893 34L887 0L856 30Z" fill="#430b11" stroke="#430b11"></path><path d="M882 322L871 381L960 352Z" fill="#1c0000" stroke="#1c0000"></path><path d="M912 171L960 102L877 130Z" fill="#cf0014" stroke="#cf0014"></path><path d="M893 34L960 0L887 0Z" fill="#880419" stroke="#880419"></path><path d="M960 352L871 381L960 398Z" fill="#1c0000" stroke="#1c0000"></path><path d="M960 398L871 381L901 439Z" fill="#b80018" stroke="#b80018"></path><path d="M960 262L960 168L912 171Z" fill="#710818" stroke="#710818"></path><path d="M832 540L899 540L856 507Z" fill="#710818" stroke="#710818"></path><path d="M960 468L960 398L901 439Z" fill="#cf0014" stroke="#cf0014"></path><path d="M960 468L901 439L899 489Z" fill="#1c0000" stroke="#1c0000"></path><path d="M960 168L960 102L912 171Z" fill="#430b11" stroke="#430b11"></path><path d="M960 540L960 468L899 489Z" fill="#cf0014" stroke="#cf0014"></path><path d="M960 102L960 42L893 34Z" fill="#ff0000" stroke="#ff0000"></path><path d="M960 42L960 0L893 34Z" fill="#ff0000" stroke="#ff0000"></path><path d="M899 540L960 540L899 489Z" fill="#880419" stroke="#880419"></path></g></svg>